<?xml version="1.0" encoding="utf-8"?>
<!-- Generator: Adobe Illustrator 25.1.0, SVG Export Plug-In . SVG Version: 6.00 Build 0)  -->
<svg version="1.1" id="Layer_1" xmlns="http://www.w3.org/2000/svg" xmlns:xlink="http://www.w3.org/1999/xlink" x="0px" y="0px"
	 viewBox="0 0 432.78 330.69" style="enable-background:new 0 0 432.78 330.69;" xml:space="preserve">
<style type="text/css">
	.st0{fill:#FFFFFF;}
</style>
<g>
	<path class="st0" d="M0,31.36v267.96c0,17.29,14.07,31.36,31.36,31.36h370.06c17.29,0,31.36-14.07,31.36-31.36V31.36
		C432.78,14.07,418.71,0,401.42,0H31.36C14.07,0,0,14.07,0,31.36z M19.43,31.36c0-6.58,5.35-11.94,11.93-11.94h370.06
		c6.58,0,11.93,5.36,11.93,11.94V223.1L300.32,100.37L196.9,214.59l-81.92-62.38l-95.55,82.74V31.36z"/>
	<path class="st0" d="M123.18,78.51c0,13.89-11.26,25.15-25.15,25.15S72.89,92.4,72.89,78.51c0-13.89,11.26-25.15,25.15-25.15
		S123.18,64.63,123.18,78.51z"/>
</g>
</svg>
