<?xml version="1.0" encoding="utf-8"?>
<!-- Generator: Adobe Illustrator 25.1.0, SVG Export Plug-In . SVG Version: 6.00 Build 0)  -->
<svg version="1.1" id="Layer_1" xmlns="http://www.w3.org/2000/svg" xmlns:xlink="http://www.w3.org/1999/xlink" x="0px" y="0px"
	 viewBox="0 0 20 20" style="enable-background:new 0 0 20 20;" xml:space="preserve">
<style type="text/css">
	.st0{fill-rule:evenodd;clip-rule:evenodd;fill:#EDECDC;}
	.st1{clip-path:url(#SVGID_2_);}
	.st2{fill-rule:evenodd;clip-rule:evenodd;fill:#FFE30F;}
	.st3{fill-rule:evenodd;clip-rule:evenodd;fill:#FF0000;}
	.st4{clip-path:url(#SVGID_4_);}
	.st5{fill-rule:evenodd;clip-rule:evenodd;fill:#823DA8;}
	.st6{fill-rule:evenodd;clip-rule:evenodd;}
	.st7{clip-path:url(#SVGID_6_);}
	.st8{fill-rule:evenodd;clip-rule:evenodd;fill:#7100B0;}
	.st9{fill:none;stroke:#000000;stroke-width:14;stroke-miterlimit:10;}
	.st10{clip-path:url(#SVGID_8_);}
	.st11{fill-rule:evenodd;clip-rule:evenodd;fill:#F7CA99;}
	.st12{fill-rule:evenodd;clip-rule:evenodd;fill:#E6B075;}
	.st13{fill-rule:evenodd;clip-rule:evenodd;fill:#E30000;}
	.st14{fill-rule:evenodd;clip-rule:evenodd;fill:#0D6CB5;}
	.st15{fill-rule:evenodd;clip-rule:evenodd;fill:#05518A;}
	.st16{fill-rule:evenodd;clip-rule:evenodd;fill:#FFFFFF;}
	.st17{fill-rule:evenodd;clip-rule:evenodd;fill:#0B4A7A;}
	.st18{fill:#300012;}
	.st19{fill:#FFFF69;}
	.st20{fill:#E30036;}
	.st21{fill:#464342;}
	.st22{fill:#41B883;}
	.st23{fill:#34495E;}
	.st24{opacity:0.2;fill:#333333;}
	.st25{fill:#336699;}
	.st26{fill:#FFFFFF;}
	.st27{fill:#FFFF00;}
	.st28{clip-path:url(#SVGID_10_);}
	.st29{clip-path:url(#SVGID_12_);}
	.st30{clip-path:url(#SVGID_14_);}
	.st31{clip-path:url(#SVGID_16_);}
	.st32{clip-path:url(#SVGID_18_);}
	.st33{clip-path:url(#SVGID_20_);}
	.st34{clip-path:url(#SVGID_22_);}
	.st35{clip-path:url(#SVGID_24_);}
	.st36{stroke:#000000;stroke-width:9.8536;stroke-miterlimit:2.4142;}
	.st37{fill:#FFFFFF;stroke:#FFFFFF;stroke-width:6.1585;stroke-miterlimit:2.4142;}
	.st38{fill-rule:evenodd;clip-rule:evenodd;fill:#FF8B00;}
	.st39{fill:#FFE30F;}
</style>
<g>
	<g>
		<g>
			<g>
				<path class="st24" d="M9.21,18.67c0.31-1.09,0.28-2.31-0.06-3.55c-2.01-0.34-3.73-0.88-5.12-1.6c-1.88-0.98-3.1-2.28-3.63-3.85
					C0.37,9.56,0.3,9.24,0.28,9.1L0.26,9.02C0.24,8.89,0.24,8.88,0.23,8.73c0-0.04-0.01-0.09-0.01-0.15C0.1,7.3,0.6,6.02,1.66,4.89
					c0.91-0.97,2.18-1.78,3.59-2.28c1.27-0.46,2.72-0.7,4.17-0.7c2.54,0,4.94,0.7,6.77,1.98c2.09,1.46,3.24,3.54,3.33,6l0,0.01
					c0.03,1.19-0.26,2.32-0.87,3.37c-0.53,0.91-1.31,1.78-2.32,2.59c-1.93,1.54-4.44,2.65-6.41,3.45l-1.02,0.41L9.21,18.67z"/>
				<path class="st25" d="M18.99,8.88c0.11,4.6-4.99,7.17-9.26,8.9c0.64-2.26-0.09-4.75-1.37-6.7c0.42,0.8,0.74,1.59,0.97,2.49
					c-3.3-0.55-7.36-1.92-8.41-5.11C0.9,8.41,0.82,8.1,0.81,7.98C0.76,7.73,0.78,7.85,0.75,7.5C0.53,5.08,2.87,2.98,5.43,2.08
					C10.9,0.11,18.74,2.5,18.99,8.88z"/>
				<path d="M9.33,13.57c-3.56-0.26-8.01-1.62-9.09-5.03C0.08,8.01,0.07,7.89,0.03,7.57C-0.36,4.57,2.84,0.9,8.47,0.42
					c7-0.54,11.74,3.9,11.52,8.66c-0.17,5.41-6.04,7.86-11.17,9.58l0.25-0.54C9.72,16.72,9.71,15.09,9.33,13.57z M9.33,13.56
					c-0.23-0.9-0.55-1.69-0.97-2.49c1.27,1.95,2.01,4.44,1.37,6.7c4.27-1.73,9.37-4.3,9.26-8.9C18.74,2.5,10.9,0.11,5.43,2.08
					c-2.56,0.91-4.9,3-4.68,5.43c0.03,0.34,0.02,0.23,0.06,0.48C0.82,8.1,0.9,8.41,0.91,8.45C1.97,11.64,6.03,13.02,9.33,13.56z"/>
			</g>
		</g>
	</g>
	<g>
		<g>
			<path class="st27" d="M13.06,0.35c3.41,0,5.44,2.78,4.64,6.57c-0.88,4.07-4.7,7.78-8.6,8.24c-0.27,0.03-0.55,0.05-0.82,0.05
				c-3.38,0-5.41-2.78-4.64-6.57c0.88-4.07,4.73-7.75,8.6-8.24C12.51,0.38,12.82,0.35,13.06,0.35z M7.29,8.65
				c-0.33,1.65,0.27,3.13,2.12,2.91c2.2-0.27,4.23-2.61,4.67-4.64c0.33-1.62-0.3-3.13-2.14-2.88C9.77,4.28,7.73,6.62,7.29,8.65z"/>
			<g>
				<path d="M13.06,0.28c0.48,0,0.96,0.05,1.44,0.15c0.48,0.1,0.94,0.27,1.38,0.5c0.22,0.12,0.43,0.25,0.63,0.4
					c0.21,0.15,0.4,0.32,0.57,0.5c0.35,0.37,0.66,0.8,0.88,1.27c0.46,0.94,0.61,2.02,0.52,3.05c-0.04,0.51-0.14,1.02-0.29,1.51
					l-0.06,0.18l-0.06,0.18C18.05,8.16,18,8.28,17.95,8.4c-0.05,0.12-0.09,0.24-0.15,0.35c-0.05,0.11-0.11,0.23-0.16,0.34
					c-0.46,0.9-1.07,1.7-1.74,2.42c-0.68,0.72-1.42,1.35-2.21,1.93c-0.79,0.57-1.62,1.07-2.52,1.45c-0.45,0.19-0.91,0.36-1.39,0.48
					c-0.12,0.03-0.24,0.06-0.36,0.09c-0.12,0.02-0.25,0.06-0.37,0.07c-0.24,0.04-0.48,0.08-0.75,0.1c-0.51,0.03-1.03,0.01-1.54-0.09
					c-0.52-0.1-1.03-0.29-1.5-0.55c-0.23-0.14-0.46-0.29-0.67-0.47c-0.11-0.09-0.2-0.18-0.3-0.28c-0.05-0.05-0.09-0.1-0.14-0.15
					c-0.05-0.05-0.09-0.1-0.14-0.15c-0.35-0.42-0.63-0.9-0.83-1.4c-0.41-1.01-0.53-2.1-0.44-3.14c0.01-0.13,0.03-0.26,0.04-0.39
					c0.01-0.13,0.04-0.26,0.06-0.39c0.02-0.13,0.05-0.26,0.08-0.39c0.02-0.06,0.03-0.13,0.05-0.19l0.05-0.19
					c0.14-0.5,0.32-0.98,0.54-1.45C3.77,5.95,4.02,5.5,4.3,5.08c0.28-0.42,0.58-0.83,0.92-1.21c0.66-0.76,1.45-1.4,2.3-1.93
					c0.43-0.26,0.87-0.49,1.32-0.69c0.23-0.1,0.45-0.19,0.68-0.28c0.23-0.09,0.46-0.16,0.69-0.23c0.47-0.14,0.94-0.25,1.41-0.33
					c0.24-0.04,0.48-0.07,0.72-0.09C12.58,0.3,12.82,0.28,13.06,0.28z M13.06,0.43c-0.94,0.01-1.87,0.27-2.7,0.68
					c-0.1,0.05-0.21,0.1-0.31,0.16c-0.1,0.06-0.2,0.11-0.3,0.18c-0.2,0.12-0.39,0.25-0.58,0.39C8.8,2.11,8.45,2.42,8.12,2.73
					C7.46,3.37,6.87,4.06,6.34,4.78C5.82,5.5,5.36,6.26,5.01,7.07C4.83,7.47,4.68,7.88,4.56,8.3C4.43,8.71,4.35,9.12,4.3,9.55
					c-0.1,0.85-0.06,1.71,0.2,2.48c0.26,0.78,0.75,1.45,1.41,1.94c0.08,0.06,0.17,0.12,0.26,0.17c0.04,0.03,0.09,0.06,0.13,0.08
					l0.14,0.07c0.09,0.05,0.19,0.09,0.28,0.14l0.15,0.06l0.07,0.03l0.08,0.03c0.4,0.14,0.84,0.23,1.28,0.26
					c0.21,0.02,0.44,0.01,0.68,0.01c0.23-0.01,0.45-0.03,0.68-0.06c0.45-0.06,0.9-0.18,1.34-0.33c0.87-0.31,1.69-0.78,2.41-1.37
					c0.72-0.59,1.35-1.29,1.86-2.06c0.51-0.77,0.92-1.59,1.25-2.42c0.08-0.21,0.16-0.42,0.22-0.63c0.04-0.1,0.07-0.21,0.1-0.32
					l0.05-0.16l0.04-0.16c0.12-0.43,0.2-0.85,0.26-1.28c0.11-0.86,0.12-1.73-0.1-2.57c-0.1-0.42-0.27-0.83-0.5-1.2
					c-0.23-0.38-0.54-0.72-0.9-1c-0.18-0.14-0.38-0.26-0.58-0.37c-0.05-0.03-0.1-0.05-0.16-0.08c-0.05-0.02-0.11-0.05-0.16-0.07
					l-0.16-0.06c-0.05-0.02-0.11-0.04-0.17-0.06C14,0.49,13.53,0.43,13.06,0.43z"/>
				<path d="M7.37,8.67C7.27,9.12,7.28,9.6,7.45,10.02c0.08,0.21,0.19,0.4,0.33,0.54c0.07,0.07,0.14,0.13,0.22,0.19
					c0.08,0.05,0.16,0.09,0.23,0.12c0.08,0.03,0.16,0.05,0.24,0.06c0.08,0.01,0.16,0.02,0.24,0.02c0.16,0,0.34-0.01,0.52-0.04
					c0.18-0.03,0.37-0.06,0.56-0.11c0.19-0.05,0.38-0.1,0.58-0.17c0.39-0.13,0.8-0.29,1.19-0.51c0.39-0.22,0.76-0.5,1.07-0.84
					c0.31-0.34,0.55-0.73,0.74-1.14c0.18-0.41,0.29-0.86,0.31-1.29C13.72,6,13.44,5.15,13,4.91c-0.11-0.06-0.23-0.1-0.38-0.12
					c-0.14-0.02-0.3-0.01-0.48,0.01c-0.09,0.01-0.19,0.03-0.28,0.05c-0.09,0.02-0.18,0.04-0.27,0.07c-0.18,0.05-0.36,0.12-0.54,0.19
					C10.7,5.27,10.35,5.47,10,5.71C9.65,5.94,9.29,6.18,8.94,6.46c-0.35,0.28-0.7,0.59-0.98,0.96C7.68,7.79,7.47,8.22,7.37,8.67z
					 M7.22,8.64c0.1-0.47,0.23-0.93,0.38-1.4C7.68,7,7.76,6.77,7.85,6.53c0.09-0.23,0.2-0.47,0.31-0.7C8.4,5.38,8.7,4.95,9.08,4.58
					C9.26,4.4,9.47,4.23,9.69,4.08c0.22-0.15,0.45-0.3,0.7-0.42c0.25-0.12,0.51-0.22,0.79-0.29c0.07-0.02,0.14-0.04,0.21-0.05
					l0.21-0.04c0.14-0.02,0.28-0.03,0.42-0.04c0.29-0.02,0.61,0,0.93,0.09c0.32,0.08,0.64,0.23,0.9,0.45
					c0.13,0.11,0.25,0.23,0.36,0.36c0.1,0.13,0.19,0.27,0.26,0.42c0.07,0.14,0.13,0.29,0.16,0.44c0.02,0.07,0.04,0.15,0.05,0.22
					c0.01,0.07,0.02,0.15,0.03,0.22c0.02,0.14,0.02,0.29,0.01,0.42c-0.01,0.14-0.02,0.28-0.04,0.41c-0.04,0.27-0.11,0.52-0.2,0.77
					c-0.09,0.25-0.2,0.48-0.31,0.7c-0.11,0.22-0.23,0.44-0.36,0.65c-0.06,0.1-0.13,0.21-0.19,0.31c-0.03,0.05-0.07,0.1-0.1,0.15
					c-0.03,0.05-0.07,0.1-0.1,0.15c-0.14,0.2-0.28,0.4-0.42,0.6c-0.29,0.39-0.58,0.79-0.92,1.17c-0.34,0.38-0.72,0.74-1.18,1.01
					c-0.46,0.27-0.99,0.45-1.56,0.47c-0.29,0.01-0.59-0.02-0.88-0.12c-0.29-0.09-0.58-0.26-0.8-0.49c-0.11-0.11-0.2-0.24-0.28-0.36
					c-0.07-0.13-0.14-0.26-0.18-0.4c-0.04-0.13-0.08-0.27-0.09-0.4c-0.01-0.07-0.02-0.13-0.02-0.2c0-0.07-0.01-0.13-0.01-0.19
					C7.06,9.58,7.13,9.11,7.22,8.64z"/>
			</g>
		</g>
	</g>
</g>
</svg>
